<?xml version="1.0" encoding="UTF-8" standalone="no"?>
<!-- Uploaded to: SVG Repo, www.svgrepo.com, Generator: SVG Repo Mixer Tools -->

<svg
   height="710.85754"
   width="734.72314"
   version="1.1"
   id="Capa_1"
   viewBox="0 0 299.91491 290.17294"
   xml:space="preserve"
   xmlns="http://www.w3.org/2000/svg"
   xmlns:svg="http://www.w3.org/2000/svg"><defs
   id="defs3" />

<path
   id="path3"
   style="fill:#ffffff;fill-opacity:1;stroke:#000000;stroke-width:3.08562;stroke-linejoin:round;stroke-opacity:1"
   d="M 113.14041,1.5426973 A 148.41478,148.41478 0 0 0 1.54281,145.31883 148.41478,148.41478 0 0 0 105.83345,287.02286 L 121.93826,153.266 7.821296,165.46021 25.878621,115.51934 h 76.310509 c -6.701,-14.256 -10.23134,-30.926979 -10.23134,-48.331982 0,-26.389049 8.25286,-50.013852 21.18262,-65.6446607 z m 74.21449,0.149886 c 12.85839,15.6324537 21.05904,39.1916337 21.05904,65.4939767 0,17.389001 -3.54634,34.07598 -10.23134,48.33198 h 75.85926 l 0.1738,0.52142 17.87794,49.38119 -1.23975,-0.13873 -117.72859,-11.99888 15.41757,135.34662 A 148.41478,148.41478 0 0 0 298.37209,145.31883 148.41478,148.41478 0 0 0 187.3549,1.6925833 Z M 150.19504,13.313563 c -20.614,0 -37.37194,24.165795 -37.37194,53.873795 0,29.490003 33.57506,52.215032 35.00006,53.161032 l 2.37108,1.60969 2.36071,-1.59852 c 1.419,-0.957 34.98928,-23.682199 34.99528,-53.172202 0,-29.708 -16.75719,-53.873795 -37.35519,-53.873795 z" /></svg>
