<?xml version="1.0" encoding="UTF-8" standalone="no"?>
<!-- Created with Inkscape (http://www.inkscape.org/) -->

<svg
   width="128"
   height="127.99999"
   viewBox="0 0 33.866667 33.866664"
   version="1.1"
   id="svg1"
   xml:space="preserve"
   xmlns="http://www.w3.org/2000/svg"
   xmlns:svg="http://www.w3.org/2000/svg"><defs
     id="defs1" /><g
     id="layer1"
     transform="translate(-79.418925,-120.36522)"><path
       d="m 103.55617,121.87093 c 0.10515,0 -0.11092,0.42079 -0.48039,0.93506 -1.55209,2.16039 -2.02531,4.23415 -2.27678,9.97693 -0.29701,6.78295 -0.5273,7.72208 -2.334775,9.52955 -1.095667,1.09568 -2.366943,1.87228 -4.089692,2.4976 -1.919982,0.69692 -2.029872,0.66354 -2.029872,-0.61403 0,-3.00267 1.640933,-8.33201 4.038618,-13.11734 0.586865,-1.17128 1.029621,-2.12972 0.984216,-2.12972 -0.0454,0 -0.565225,0.72992 -1.155099,1.62206 -2.674633,4.04508 -4.34011,8.61038 -5.141107,14.09234 -0.310454,2.1247 -0.410601,5.99653 -0.152069,5.8788 1.736882,-0.79101 2.95285,-1.59321 3.272139,-2.15814 3.062278,-5.41812 8.433751,-6.56261 15.160281,-3.23067 1.1895,0.58922 2.46728,1.29836 2.83974,1.57597 l 0.67739,0.50459 -0.67739,0.002 c -0.84745,0.003 -2.42741,0.41725 -3.33127,0.87363 -0.37849,0.1911 -1.83151,1.10587 -3.22874,2.03256 -1.39725,0.9267 -3.03404,1.88766 -3.63733,2.13585 v 3.9e-4 c -1.41723,0.58303 -2.97364,0.59701 -4.481008,0.0404 -1.397106,-0.51597 -2.710717,-1.36398 -2.710717,-1.74993 0,-0.85527 5.961735,-3.11388 10.027235,-3.79861 0.32441,-0.0546 -0.21498,-0.0589 -1.19849,-0.009 -3.52395,0.17641 -7.87157,1.80691 -11.547904,4.33123 -0.846675,0.58137 -1.634535,1.05718 -1.750697,1.05718 -0.282505,0 -2.657577,-1.33433 -2.80787,-1.57751 -0.06517,-0.10551 -0.534558,-0.192 -1.043353,-0.192 -1.02649,0 -2.668613,-0.53301 -3.514448,-1.14089 -1.558992,-1.12041 -2.598368,-3.0675 -2.998721,-5.61767 -0.253949,-1.61763 -0.119113,-4.64497 0.206975,-4.64497 0.09688,0 0.176265,0.0907 0.176265,0.20123 0,0.44758 1.731598,2.03606 3.035199,2.78445 4.082729,2.34388 4.774104,3.07463 4.971762,5.25439 0.108746,1.19928 -0.03025,2.1804 -0.309123,2.1804 -0.585097,0 -3.041242,-2.15389 -5.044726,-4.42378 l -0.520714,-0.58985 0.359051,0.66627 c 0.592327,1.09847 3.096158,3.62934 4.659176,4.70986 2.168527,1.49911 2.090161,1.50648 2.090161,-0.1993 0,-0.79841 0.09109,-2.17771 0.202368,-3.06516 0.180686,-1.441 0.162242,-1.69251 -0.170883,-2.35397 -2.112573,-4.19478 -2.071457,-8.89131 0.110595,-12.63004 1.525677,-2.61409 5.301016,-5.81707 9.033802,-7.66443 1.622345,-0.8029 4.464295,-1.97534 4.788195,-1.97534 z"
       id="path2"
       style="fill:#00ff64;fill-opacity:1;stroke-width:0.743102" /></g></svg>
