<?xml version="1.0" encoding="UTF-8" standalone="no"?>
<!-- Created with Inkscape (http://www.inkscape.org/) -->

<svg
   width="512"
   height="512"
   viewBox="0 0 135.46666 135.46667"
   version="1.1"
   id="svg1"
   xml:space="preserve"
   xmlns="http://www.w3.org/2000/svg"
   xmlns:svg="http://www.w3.org/2000/svg"><defs
     id="defs1" /><g
     id="layer1"><rect
       style="fill:#ff0000;fill-opacity:1;fill-rule:evenodd;stroke:none;stroke-width:0;stroke-linejoin:round"
       id="rect1"
       width="98.407173"
       height="21.396963"
       x="18.097872"
       y="102.64886" /><rect
       style="fill:#ff8000;fill-opacity:1;fill-rule:evenodd;stroke:none;stroke-width:0;stroke-linejoin:round"
       id="rect2"
       width="110.84946"
       height="14.610261"
       x="11.688209"
       y="90.866394" /><rect
       style="fill:#ffff00;fill-opacity:1;fill-rule:evenodd;stroke:none;stroke-width:0;stroke-linejoin:round"
       id="rect3"
       width="110.84946"
       height="16.589716"
       x="11.688209"
       y="75.030754" /><rect
       style="fill:#00ff00;fill-opacity:1;fill-rule:evenodd;stroke:none;stroke-width:0;stroke-linejoin:round"
       id="rect4"
       width="101.83125"
       height="18.884436"
       x="17.33987"
       y="59.351151" /><rect
       style="fill:#00ffff;fill-opacity:1;fill-rule:evenodd;stroke:none;stroke-width:0;stroke-linejoin:round"
       id="rect5"
       width="83.757179"
       height="14.303136"
       x="24.804861"
       y="46.365971" /><rect
       style="fill:#ff30ff;fill-opacity:1;fill-rule:evenodd;stroke:none;stroke-width:0;stroke-linejoin:round"
       id="rect6"
       width="62.162025"
       height="14.201365"
       x="37.335381"
       y="34.901878" /><path
       style="fill:#ffffff;fill-opacity:1;fill-rule:evenodd;stroke:none;stroke-width:0;stroke-linejoin:round"
       id="path7"
       d="m 67.018677,2.5330505 15.765207,27.3061415 -31.530415,-1e-6 z"
       transform="matrix(1.2541063,0,0,0.83516885,-16.040143,11.728695)" /><g
       style="fill:none"
       id="g1"
       transform="matrix(-6.4094984,0,0,-7.6076367,144.64524,159.24438)"><path
         fill-rule="evenodd"
         clip-rule="evenodd"
         d="M 12,6.00019 C 10.2006,3.90317 7.19377,3.2551 4.93923,5.17534 2.68468,7.09558 2.36727,10.3061 4.13778,12.5772 c 1.47206,1.8882 5.92702,5.8707 7.38712,7.1597 0.1633,0.1442 0.245,0.2163 0.3403,0.2446 0.0831,0.0247 0.1741,0.0247 0.2573,0 0.0953,-0.0283 0.1769,-0.1004 0.3403,-0.2446 1.4601,-1.289 5.915,-5.2715 7.3871,-7.1597 C 21.6204,10.3061 21.3417,7.07538 19.0484,5.17534 16.7551,3.2753 13.7994,3.90317 12,6.00019 Z"
         stroke="#000000"
         stroke-width="2"
         stroke-linecap="round"
         stroke-linejoin="round"
         id="path1" /></g></g></svg>
