<?xml version="1.0" encoding="UTF-8" standalone="no"?>
<!-- Created with Inkscape (http://www.inkscape.org/) -->

<svg
   version="1.1"
   id="svg1"
   width="390.72"
   height="572.79999"
   viewBox="0 0 390.72 572.79999"
   xmlns="http://www.w3.org/2000/svg"
   xmlns:svg="http://www.w3.org/2000/svg">
  <defs
     id="defs1" />
  <g
     id="g1"
     transform="translate(-0.04620911)">
    <path
       style="fill:#ffffff;fill-opacity:1;stroke:none"
       d="m 188.66441,559.11999 c -0.35984,-22.93168 -0.94028,-36.45184 -2.12595,-49.52 -1.70375,-18.77823 -4.45232,-30.21252 -8.15174,-33.91195 -0.75236,-0.75236 -1.10672,-1.40321 -1.10672,-2.03273 0,-0.89221 0.073,-0.9364 2,-1.21066 l 2,-0.28466 -0.0846,-9.92 c -0.41161,-48.29354 -6.20958,-80.37139 -18.33498,-101.44 -2.27058,-3.94527 -7.90914,-12.08369 -10.37094,-14.96891 -9.19989,-10.78221 -30.745,-21.85378 -49.22392,-25.2951 l -2.49439,-0.46453 -1.226445,2.44427 c -1.962564,3.91135 -6.05765,13.29533 -7.730617,17.71489 -2.751599,7.26902 -4.530763,13.71067 -5.769582,20.88938 -0.96393,5.58579 -1.186093,15.86864 -0.46521,21.53236 1.916495,15.05722 8.213489,28.92366 19.729044,43.44479 1.84724,2.32938 6.37714,7.24606 10.34848,11.23208 l 7.06311,7.08922 -4.48,-3.05541 c -10.34327,-7.05422 -19.809288,-14.53363 -23.666114,-18.69936 -2.587883,-2.79515 -4.177084,-5.87801 -14.734747,-28.58368 -9.01149,-19.38041 -13.504348,-28.59958 -15.073583,-30.93042 -2.375189,-3.52795 -2.368148,-3.26511 -0.147429,-5.50381 2.137435,-2.15475 3.418016,-3.91582 4.803445,-6.60577 1.609958,-3.12589 1.907091,-4.7478 2.279471,-12.44258 0.901211,-18.62239 -1.392787,-41.58846 -6.097282,-61.04217 C 58.696093,248.99111 47.352692,225.7187 33.124453,210.91987 27.909685,205.49597 21.63129,200.94321 16.007688,198.50768 L 13.6,197.46494 13.201848,195.52015 C 12.611628,192.6372 11.767834,191.2516 9.9143411,190.1217 8.545739,189.28739 6.978221,189.26413 5.2424398,190.05238 L 3.9248795,190.6507 2.707025,189.00535 C 2.0372051,188.10041 1.1645042,186.928 0.76768984,186.4 L 0.04620911,185.44 2.1764526,185.3498 C 15.07122,184.80348 31.551056,169.06578 45.613001,143.86929 c 1.366145,-2.44788 4.082097,-6.84203 6.03545,-9.76476 9.126199,-13.6552 12.972726,-24.32191 14.260178,-39.544532 0.598673,-7.078603 0.327077,-25.334066 -0.480272,-32.281775 l -0.181484,-1.561775 1.459978,1.285123 c 1.683277,1.48168 2.747462,1.780596 4.360582,1.224831 2.49842,-0.860776 4.097472,-2.6008 13.257613,-14.426403 C 100.03649,28.516759 113.2856,14.378699 123.22517,7.289838 127.02983,4.5763699 132.44696,1.8522587 136.1158,0.8075206 138.69747,0.07236452 139.49488,0 145.0141,0 c 3.48342,0 6.67986,0.15545295 7.51369,0.36541537 l 1.4512,0.36541536 -3.6295,3.64039167 L 146.72,8.011614 144.46299,7.8073771 c -6.6627,-0.6029092 -15.011,2.2496029 -22.84874,7.8071419 -3.8263,2.713128 -10.80815,9.454274 -14.31914,13.82548 -12.380262,15.413492 -20.475572,34.139909 -22.199221,51.352175 -0.682596,6.81637 -0.169817,11.39043 2.350617,20.967826 1.554938,5.9086 2.154135,10.97693 2.150414,18.18936 -0.0036,7.07116 -0.666704,13.82398 -1.954899,19.90944 l -0.308805,1.4588 -1.974074,-0.9788 c -1.762611,-0.87395 -2.283923,-0.9788 -4.866608,-0.9788 -2.50249,0 -3.132349,0.11777 -4.670982,0.87342 -1.906729,0.93642 -4.822645,3.67219 -6.404742,6.00906 -7.658721,11.31246 -10.993162,33.8718 -6.84615,46.31801 0.454387,1.36373 1.192501,3.05551 1.640252,3.75951 0.447751,0.704 5.813741,6.248 11.924422,12.32 13.953003,13.86467 18.783352,19.63508 22.065323,26.35957 1.861843,3.81475 1.915083,4.20394 0.741995,5.42344 -0.538054,0.55934 -1.382284,1.80898 -1.876066,2.77698 -0.798076,1.56454 -0.897488,2.09763 -0.895114,4.8 0.0038,4.38014 1.501213,8.4922 5.185338,14.24 5.85026,9.1273 18.54212,20.42844 27.02595,24.06456 l 0.89724,0.38455 v -10.22455 -10.22456 h 1.39924 1.39924 l 1.82624,5.36 c 4.57542,13.42883 11.44807,28.53851 16.41101,36.08 4.95499,7.5294 8.92479,11.57412 13.68427,13.9425 7.58669,3.77524 14.56169,0.28073 19.52573,-9.7825 2.57906,-5.22832 3.96841,-10.65915 4.48209,-17.52 l 0.20963,-2.8 H 190.10873 192 v 140.64 140.64 h -1.56046 -1.56047 z m 10.05559,-126.96 v -140.64 h 1.89127 1.89128 l 0.20964,2.8 c 0.51367,6.86085 1.90302,12.29168 4.48208,17.52 2.94548,5.97116 6.67022,9.66829 11.01212,10.93051 5.22243,1.5182 11.6037,-1.59551 17.34011,-8.46103 7.11901,-8.52026 15.03807,-24.42238 21.26878,-42.70948 l 1.82624,-5.36 h 1.39924 1.39924 v 10.22456 10.22455 l 0.89724,-0.38455 c 8.48383,-3.63612 21.17569,-14.93726 27.02595,-24.06456 3.68413,-5.7478 5.18149,-9.85986 5.18534,-14.24 0.002,-2.70237 -0.097,-3.23546 -0.89511,-4.8 -0.49379,-0.968 -1.33802,-2.21764 -1.87607,-2.77698 -1.17309,-1.2195 -1.11985,-1.60869 0.74199,-5.42344 3.28197,-6.72449 8.11232,-12.4949 22.06533,-26.35957 6.11068,-6.072 11.47667,-11.616 11.92442,-12.32 0.44775,-0.704 1.18586,-2.39578 1.64025,-3.75951 4.14379,-12.43654 0.80662,-35.01434 -6.84615,-46.31801 -1.5821,-2.33687 -4.49801,-5.07264 -6.40474,-6.00906 -1.53863,-0.75565 -2.16849,-0.87342 -4.67098,-0.87342 -2.58269,0 -3.104,0.10485 -4.86661,0.9788 l -1.97407,0.9788 -0.30881,-1.4588 c -1.28819,-6.08546 -1.95125,-12.83828 -1.9549,-19.90944 -0.004,-7.21243 0.59548,-12.28076 2.15041,-18.18936 2.51877,-9.571042 3.00481,-13.87327 2.34989,-20.800002 C 304.00239,63.815731 295.8633,44.925884 283.4249,29.439999 279.9139,25.068793 272.93205,18.327647 269.10575,15.614519 261.26801,10.05698 252.91971,7.2044679 246.25701,7.8073771 L 244,8.011614 l -3.62949,-3.6403916 -3.6295,-3.64039167 1.4512,-0.36541536 C 239.02605,0.15545295 242.22248,0 245.70591,0 c 5.51922,0 6.31662,0.07236452 8.89829,0.8075206 3.66885,1.0447381 9.08597,3.7688493 12.89063,6.4823174 9.93958,7.088861 23.18868,21.226921 38.90012,41.510161 9.16015,11.825603 10.7592,13.565627 13.25762,14.426403 1.61312,0.555765 2.6773,0.256849 4.36058,-1.224831 l 1.45998,-1.285123 -0.18149,1.561775 c -0.80734,6.947709 -1.07894,25.203172 -0.48027,32.281775 1.28745,15.222622 5.13398,25.889332 14.26018,39.544532 1.95335,2.92273 4.6693,7.31688 6.03545,9.76476 14.06194,25.19649 30.54178,40.93419 43.43655,41.48046 l 2.13024,0.0902 -0.72148,0.96 c -0.39681,0.528 -1.26951,1.70041 -1.93933,2.60535 l -1.21786,1.64535 -1.31756,-0.59832 c -1.73578,-0.78825 -3.3033,-0.76499 -4.6719,0.0693 -1.85349,1.1299 -2.69729,2.5155 -3.28751,5.39845 l -0.39815,1.94479 -2.40769,1.04274 c -15.53859,6.72961 -30.25744,25.1024 -40.57714,50.65037 -9.25705,22.91722 -14.38495,48.59604 -15.26497,76.44194 -0.23638,7.47963 0.27892,19.0559 0.96558,21.6922 0.90732,3.4834 3.18602,7.24855 6.26609,10.35357 2.22072,2.2387 2.22776,1.97586 -0.14742,5.50381 -1.57155,2.33427 -6.07355,11.57123 -15.07518,30.93042 -10.56554,22.72258 -12.14657,25.78993 -14.73316,28.58368 -3.87519,4.18557 -13.33564,11.65528 -23.77909,18.77531 l -4.59299,3.13136 5.83158,-5.72517 c 6.25272,-6.13864 9.94183,-10.23954 13.83015,-15.37394 10.18332,-13.44673 15.89784,-26.62165 17.70488,-40.81888 0.72088,-5.66372 0.49872,-15.94657 -0.46521,-21.53236 -1.23618,-7.1634 -2.8262,-12.9444 -5.6291,-20.46626 -1.74164,-4.67387 -5.75011,-13.91091 -7.8711,-18.13801 l -1.22645,-2.44427 -2.49439,0.46453 c -18.47892,3.44132 -40.02403,14.51289 -49.22392,25.2951 -2.4618,2.88522 -8.10036,11.02364 -10.37094,14.96891 -9.83976,17.09718 -15.15245,39.8442 -17.45125,74.72 -0.53638,8.13763 -1.32104,35.5161 -1.03895,36.25122 0.12094,0.31516 0.85322,0.5582 2.12754,0.7061 1.88494,0.21877 1.94313,0.25365 1.94313,1.16477 0,0.64461 -0.34717,1.28641 -1.10671,2.04596 -3.69943,3.69943 -6.448,15.13372 -8.15175,33.91195 -1.18535,13.06467 -1.76814,26.62214 -2.12869,49.52 l -0.21541,13.68 H 200.27872 198.72 Z M 185.2932,262.27998 c -0.57882,-1.75382 -2.43215,-4.08737 -4.57279,-5.75764 -1.13056,-0.88214 -4.50506,-2.7828 -7.76041,-4.37099 -5.84144,-2.84987 -7.18852,-3.6295 -6.85226,-3.96576 0.10271,-0.10271 0.89448,0.028 1.7595,0.29037 1.89978,0.57631 4.5953,0.62407 5.7417,0.10174 0.96553,-0.43993 1.75106,-1.77322 1.75106,-2.97209 0,-1.6481 -1.4058,-4.13832 -2.59874,-4.60338 -0.28531,-0.11123 -1.38662,-1.35424 -2.44736,-2.76224 -1.06074,-1.408 -4.64331,-5.37709 -7.96126,-8.8202 -3.31795,-3.44312 -6.46464,-6.74299 -6.99264,-7.33305 l -0.96,-1.07285 1.13723,0.84315 c 3.54757,2.63021 7.00768,2.3775 7.98479,-0.58316 0.62931,-1.90683 -0.38155,-4.30737 -2.08683,-4.95571 -0.53672,-0.20406 -0.82086,-0.70866 -1.11276,-1.97611 -0.39908,-1.73287 -5.47373,-15.07333 -6.87293,-18.06787 -1.33242,-2.85162 -2.44068,-3.80037 -7.01588,-6.00609 -5.6819,-2.73928 -9.2446,-5.55128 -12.08228,-9.53644 l -0.7197,-1.01072 1.54538,1.06324 c 1.59462,1.09713 3.85854,1.93582 5.22548,1.93582 1.2796,0 2.90155,-0.95393 3.63229,-2.13629 0.5881,-0.95156 0.66425,-1.45544 0.53892,-3.56593 -0.13103,-2.20652 -0.36014,-2.91578 -2.24115,-6.93778 -3.83582,-8.20182 -5.1769,-13.6226 -5.18542,-20.96 -0.006,-5.10656 0.47283,-8.09253 2.06276,-12.86493 2.89983,-8.70426 9.24556,-17.29969 17.5901,-23.8262 8.58795,-6.71688 19.89872,-11.13718 27.04,-10.56736 2.38668,0.19044 5.50656,1.10454 5.0653,1.48409 -0.14591,0.12551 -1.44845,0.53592 -2.89452,0.91203 -18.18033,4.72847 -31.35685,17.47144 -35.30399,34.14237 -3.70948,15.66719 2.10441,33.00746 14.09657,42.04383 6.52416,4.9161 14.72479,7.71617 22.59856,7.71617 3.26137,0 3.53418,0.1858 2.40333,1.63684 -1.75483,2.2517 -2.36782,4.93846 -1.9641,8.60875 0.14486,1.31692 0.20416,2.4541 0.13179,2.52707 -0.0724,0.073 -0.88997,-0.25103 -1.81686,-0.72 -1.98137,-1.00248 -3.41512,-1.06606 -5.25026,-0.23284 -2.2657,1.02871 -2.6932,2.94357 -1.07882,4.83226 1.3074,1.52957 1.26911,2.77427 -0.14592,4.7439 -1.51081,2.10293 -2.08108,3.868 -2.08108,6.44125 0,1.82702 0.17203,2.50065 1.1252,4.40591 1.7346,3.46727 5.79465,6.96277 9.5148,8.19177 0.48617,0.16061 0.56,0.62929 0.56,3.55504 0,2.90338 -0.0723,3.37004 -0.52223,3.37004 -0.95705,0 -2.60291,1.27592 -3.15986,2.44961 -1.0873,2.29132 0.0114,5.0365 2.39796,5.99141 l 1.28413,0.5138 -0.002,1.84259 c -0.001,1.30036 -0.1892,2.1251 -0.63789,2.80259 -0.8133,1.22805 -0.8133,2.46398 0,3.2 0.59027,0.53419 0.64,0.98559 0.64,5.8096 v 5.2304 h -1.57518 c -1.50537,0 -1.59099,-0.0479 -1.93162,-1.08001 z m 16.6268,-4.15039 c 0,-4.82401 0.0497,-5.27541 0.64,-5.8096 0.8133,-0.73602 0.8133,-1.97195 0,-3.2 -0.44868,-0.67749 -0.6364,-1.50223 -0.63789,-2.80259 l -0.002,-1.84259 1.28413,-0.5138 c 2.38655,-0.95491 3.48526,-3.70009 2.39796,-5.99141 -0.55695,-1.17369 -2.20281,-2.44961 -3.15986,-2.44961 -0.44991,0 -0.52223,-0.46666 -0.52223,-3.37004 0,-2.92575 0.0738,-3.39443 0.56,-3.55504 3.72015,-1.229 7.7802,-4.7245 9.5148,-8.19177 0.95317,-1.90526 1.1252,-2.57889 1.1252,-4.40591 0,-2.57325 -0.57027,-4.33832 -2.08107,-6.44125 -1.41504,-1.96963 -1.45333,-3.21433 -0.14592,-4.7439 1.61437,-1.88869 1.18687,-3.80355 -1.07883,-4.83226 -1.83514,-0.83322 -3.26889,-0.76964 -5.25026,0.23284 -0.92689,0.46897 -1.74448,0.79297 -1.81685,0.72 -0.0724,-0.073 -0.0131,-1.21015 0.13178,-2.52707 0.40372,-3.67029 -0.20927,-6.35705 -1.9641,-8.60875 -1.13084,-1.45104 -0.85804,-1.63684 2.40333,-1.63684 3.83226,0 7.80458,-0.69593 12.02417,-2.10657 12.92426,-4.32065 21.98085,-15.04881 24.99604,-29.60952 0.88584,-4.27782 0.96344,-11.21168 0.17508,-15.64391 -3.15205,-17.72119 -16.73308,-31.58223 -35.80415,-36.54237 -1.44607,-0.37611 -2.7486,-0.78652 -2.89452,-0.91203 -0.44125,-0.37955 2.67862,-1.29365 5.0653,-1.48409 7.14128,-0.56982 18.45205,3.85048 27.04,10.56736 8.34455,6.52651 14.69027,15.12194 17.5901,23.8262 1.58993,4.7724 2.0687,7.75837 2.06277,12.86493 -0.009,7.3374 -1.34961,12.75818 -5.18543,20.96 -1.88101,4.022 -2.11012,4.73126 -2.24115,6.93778 -0.12533,2.11049 -0.0492,2.61437 0.53893,3.56593 0.73073,1.18236 2.35268,2.13629 3.63228,2.13629 1.36694,0 3.63086,-0.83869 5.22549,-1.93582 l 1.54537,-1.06324 -0.7197,1.01072 c -2.83768,3.98516 -6.40038,6.79716 -12.08228,9.53644 -4.5752,2.20572 -5.68346,3.15447 -7.01588,6.00609 -1.49789,3.20574 -6.53566,16.42513 -6.89117,18.08278 -0.27234,1.26989 -0.53903,1.75 -1.08803,1.95873 -1.71154,0.65073 -2.7237,3.0481 -2.09332,4.95818 0.97711,2.96066 4.43722,3.21337 7.9848,0.58316 l 1.13722,-0.84315 -0.96,1.07285 c -0.528,0.59006 -3.67469,3.88993 -6.99264,7.33305 -3.31795,3.44311 -6.90051,7.4122 -7.96126,8.8202 -1.06074,1.408 -2.16205,2.65101 -2.44736,2.76224 -1.19294,0.46506 -2.59874,2.95528 -2.59874,4.60338 0,1.19887 0.78553,2.53216 1.75106,2.97209 1.14641,0.52233 3.84192,0.47457 5.7417,-0.10174 0.86502,-0.26241 1.65679,-0.39308 1.7595,-0.29037 0.33458,0.33458 -1.00063,1.11064 -6.85226,3.98275 -3.168,1.55492 -6.6619,3.52114 -7.76423,4.36939 -2.13136,1.64009 -3.98326,3.96754 -4.56896,5.74225 -0.34064,1.03214 -0.42626,1.08001 -1.93163,1.08001 H 201.92 Z"
       id="path1" />
  </g>
</svg>
