<?xml version="1.0" encoding="UTF-8" standalone="no"?>
<!-- Created with Inkscape (http://www.inkscape.org/) -->

<svg
   width="128mm"
   height="128mm"
   viewBox="0 0 128 128"
   version="1.1"
   id="svg1"
   xml:space="preserve"
   xmlns="http://www.w3.org/2000/svg"
   xmlns:svg="http://www.w3.org/2000/svg"><defs
     id="defs1" /><g
     id="layer1"><path
       style="fill:#ffffff;fill-opacity:1;stroke-width:0.399482"
       d="m 46.776048,27.237492 0.0083,-0.290663 0.03534,-0.105703 0.03536,-0.105701 0.28869,-1.37405 0.288692,-1.374049 0.06399,-0.118862 0.06399,-0.118861 0.84557,-0.663179 0.845571,-0.663179 0.119779,-0.09266 0.119778,-0.09266 0.937185,-0.264158 0.937178,-0.264158 0.369936,-0.115895 0.369939,-0.115895 0.581326,-0.261456 0.581329,-0.261456 0.528481,-0.245491 0.528482,-0.245489 0.657415,-0.272958 0.657415,-0.272958 h 0.357352 0.357348 l 0.330962,0.115374 0.330962,0.115375 0.380838,0.518802 0.380833,0.518802 0.07027,0.0075 0.07028,0.0075 0.84557,0.07925 0.845567,0.07925 0.86581,-0.672046 0.865813,-0.672047 0.207822,-0.339567 0.207826,-0.339565 0.06309,-0.687026 0.06309,-0.687025 0.156905,-1.955377 0.156902,-1.955378 0.31644,-3.857908 L 62.829911,6.3360176 62.51462,4.9684486 62.199329,3.6008791 V 3.3635646 3.1262916 l 0.339656,-0.5463935 0.339655,-0.5463934 0.426642,0.068714 0.426638,0.068714 0.634177,0.083023 0.634177,0.083023 0.962195,0.4992572 0.962195,0.4992568 0.224429,0.3035544 0.224427,0.3035546 0.209145,0.5504323 0.209149,0.5504321 -0.159821,0.3090571 -0.159816,0.3090573 -0.360728,0.3992803 -0.360724,0.3992808 -0.07272,6.4910764 -0.07272,6.491076 0.186356,0.369936 0.186353,0.369937 0.593278,0.607752 0.593274,0.607753 1.165966,-0.0059 1.165966,-0.0059 0.45046,-0.570807 0.450458,-0.570807 0.395107,-0.109728 0.395111,-0.109729 0.233906,-5.99e-4 0.233903,-6e-4 0.52909,0.208548 0.529089,0.208547 1.245231,0.618327 1.245235,0.618327 0.951266,0.291634 0.951265,0.291634 0.395091,0.148482 0.39509,0.14848 0.899688,0.753678 0.899683,0.753676 v 0.07269 0.07269 l 0.268069,1.715602 0.268069,1.715599 -0.0641,0.103715 -0.06409,0.103714 -0.283244,-0.204174 -0.28324,-0.204174 -0.227425,-0.214959 -0.227425,-0.214961 -1.040929,-0.800298 -1.040933,-0.800298 -0.105688,-0.07896 -0.105688,-0.07897 -0.780839,-0.460855 -0.780842,-0.460858 -0.85745,-0.100284 -0.857452,-0.100286 -0.630493,0.06156 -0.630494,0.06156 -0.400044,0.390631 -0.400039,0.39063 0.0029,0.744846 0.0029,0.744845 0.306949,0.687026 0.306949,0.687024 0.819276,0.437631 0.819273,0.43763 0.134436,0.183857 0.134437,0.183858 0.211244,0.653878 0.211246,0.653878 -0.153268,0.944253 -0.153265,0.944252 -4e-4,0.734418 -3.99e-4,0.734418 -0.267588,0.877288 -0.267589,0.877289 -0.863347,0.95319 -0.863347,0.95319 -0.11099,-0.03704 -0.110989,-0.03704 0.0073,-0.519633 0.0073,-0.519634 0.07645,-0.820039 0.07645,-0.820041 -0.117859,-0.659706 -0.117859,-0.659705 -0.264729,-0.951265 -0.264723,-0.951265 -0.28251,-0.452689 -0.282505,-0.45269 -0.349554,-0.20791 -0.349553,-0.207912 h -0.106623 -0.106621 l -0.970721,0.482757 -0.970719,0.482756 -0.132124,0.171622 -0.132124,0.171621 -0.004,1.591665 -0.004,1.591663 -0.14912,1.63829 -0.149121,1.63829 -0.174629,2.219617 -0.17463,2.219619 -0.790186,2.6424 -0.790186,2.642405 -0.705261,2.008225 -0.70526,2.008224 0.01587,2.43426 0.01587,2.434259 0.764109,2.004977 0.76411,2.004976 0.616301,1.48101 0.616303,1.481005 0.167707,0.474373 0.167711,0.474371 0.259262,2.060786 0.259267,2.060784 v 0.317115 0.317116 l -0.303532,0.951529 -0.303531,0.951524 -0.283775,1.056961 -0.283776,1.056963 -0.402622,0.687024 -0.402618,0.687024 -0.845354,1.479747 -0.84535,1.479743 -0.690455,1.215506 -0.690451,1.215505 -0.36305,0.739871 -0.363049,0.739876 -0.23628,2.219619 -0.236277,2.219617 0.783262,2.325314 0.783259,2.325312 0.335189,0.66079 0.335192,0.660791 0.199433,0.501868 0.199438,0.501868 0.366385,0.79272 0.366384,0.792722 0.373207,1.585442 0.373212,1.585432 0.134409,0.70693 0.134409,0.70692 -0.129568,0.77282 -0.129569,0.772825 -0.315585,1.64562 -0.315586,1.64562 -0.96055,2.26514 -0.960553,2.26515 -0.993082,2.85379 -0.993088,2.8538 -0.149861,0.58133 -0.149861,0.58132 -0.222636,2.00823 -0.22263,2.00822 -0.263038,2.16677 -0.263034,2.16678 -0.08523,1.08441 -0.08523,1.08442 -0.06942,0.0695 -0.06943,0.0695 -0.07452,-0.0745 -0.07452,-0.0745 -0.03551,-0.70939 -0.03551,-0.70939 -0.208101,-3.27658 -0.208106,-3.27658 -0.105229,-1.44023 -0.105229,-1.44024 0.268851,-1.73065 0.268851,-1.73065 0.313438,-1.79683 0.31344,-1.79684 0.48354,-1.84968 0.483541,-1.84969 0.08742,-2.52176 0.08742,-2.521785 -0.371186,-0.91335 -0.371182,-0.91335 -0.357947,-1.004107 -0.357943,-1.004116 -1.315216,-2.642402 -1.315217,-2.6424 -0.639559,-2.061076 -0.639556,-2.061073 0.109813,-1.321201 0.109812,-1.321205 0.08527,-1.004111 0.08529,-1.004113 0.448401,-1.004111 0.448406,-1.004113 0.687308,-1.423684 0.687308,-1.423683 0.638324,-1.113023 0.638321,-1.113024 0.243893,-0.490678 0.243891,-0.490683 0.659296,-2.087846 0.659296,-2.087849 -0.43941,-2.177796 -0.439409,-2.177796 -0.7524,-1.479747 -0.752394,-1.479748 -0.237137,-0.422782 -0.237139,-0.422787 -0.140558,-0.369936 -0.140559,-0.369936 -0.709366,-1.691137 -0.709364,-1.691139 -0.100793,-2.219619 -0.100793,-2.219618 0.335084,-1.215506 0.335081,-1.215501 0.492102,-1.508422 0.492101,-1.508417 7.97e-4,-0.18272 0.0012,-0.182718 0.52648,-1.955376 0.526477,-1.955378 2.52e-4,-4.967718 2.48e-4,-4.967716 -0.06643,-0.703299 -0.06643,-0.703299 -1.160106,-0.591478 -1.160105,-0.591478 h -0.150274 -0.150274 l -0.49854,0.252816 -0.498544,0.252816 -0.185073,0.20483 -0.185071,0.20483 -0.411238,0.948158 -0.411239,0.948156 -0.222834,0.794133 -0.222835,0.794134 v 1.334645 1.334645 l -0.112734,0.06966 -0.112719,0.06966 -0.125093,-0.160592 -0.12508,-0.160591 -0.618006,-0.746282 -0.618006,-0.746283 -0.189972,-0.768423 -0.18997,-0.768426 -0.05578,-1.955377 -0.05578,-1.955378 0.335278,-0.687024 0.335272,-0.687025 0.927504,-0.457131 0.927504,-0.457131 0.35336,-0.705528 0.353362,-0.705524 0.0751,-0.613586 0.07508,-0.613585 -0.163015,-0.248795 -0.163018,-0.248795 -0.277819,-0.299772 -0.277819,-0.299772 -1.285059,0.01887 -1.28506,0.01887 -0.58133,0.271136 -0.581329,0.271137 -0.209928,0.132267 -0.209925,0.132259 -1.111274,0.737782 -1.111273,0.737783 -0.317089,0.292265 -0.317088,0.292266 -0.06495,4.78e-4 -0.06495,4.8e-4 -0.357837,0.3154 -0.357835,0.315401 -0.07926,0.0016 -0.07926,0.0016 z"
       id="path2" /></g></svg>
